<?xml version="1.0" encoding="UTF-8" standalone="no"?>
<svg xmlns="http://www.w3.org/2000/svg" viewBox="0 0 32 32">

	<style type="text/css">
		path { fill: #888; }

		@media (prefers-color-scheme: light) {
			path { fill: #666; }
		}
	</style>

	<path
		d="M 0.30628908,14.655273 Q 1.5846094,14.62207 2.3814844,13.974609 3.194961,13.310547 3.460586,12.165039 3.726211,11.019531 3.7428125,8.2470703 3.7594141,5.4746094 3.8424219,4.5947266 3.991836,3.2001953 4.3902735,2.3535156 4.8053125,1.5068359 5.4029688,1.0087891 6.000625,0.49414063 6.9303125,0.22851563 7.5611719,0.0625 8.9889063,0.0625 H 9.9185938 V 2.6689453 H 9.4039453 q -1.7265625,0 -2.2910156,0.6308594 -0.5644531,0.6142578 -0.5644531,2.7724609 0,4.3496094 -0.1826172,5.4951174 -0.2988281,1.776367 -1.0292969,2.739258 -0.7138672,0.96289 -2.2578125,1.709961 1.8261719,0.763671 2.6396485,2.34082 0.8300781,1.560547 0.8300781,5.129883 0,3.237304 0.066406,3.851562 0.1328125,1.128906 0.6640625,1.577149 0.5478516,0.448242 2.125,0.448242 h 0.5146485 v 2.606445 H 8.9889063 q -1.6269532,0 -2.3574219,-0.265625 -1.0625,-0.381836 -1.7597656,-1.245117 Q 4.1744531,29.613281 3.9586328,28.301758 3.7594141,26.990234 3.7428125,24.001953 3.726211,21.013672 3.460586,19.868164 3.194961,18.722656 2.3814844,18.058594 1.5846094,17.394531 0.30628908,17.361328 Z"
		aria-label="{" />

	 <path
		d="m 31.677109,14.655273 v 2.706055 q -1.278321,0.0332 -2.091797,0.697266 -0.796875,0.664062 -1.0625,1.80957 -0.265625,1.128906 -0.282227,3.901367 -0.0166,2.772461 -0.09961,3.652344 -0.149414,1.411133 -0.564453,2.241211 -0.398438,0.84668 -0.996094,1.344726 -0.597656,0.514649 -1.527344,0.780274 -0.630859,0.182617 -2.058593,0.182617 h -0.929688 v -2.606445 h 0.514649 q 1.726562,0 2.291015,-0.63086 0.564453,-0.614257 0.564453,-2.789062 0,-4.150391 0.149414,-5.262695 0.265625,-1.842774 1.0625,-2.938477 0.796875,-1.112305 2.257813,-1.726562 -1.90918,-0.913086 -2.689453,-2.407227 -0.780274,-1.510742 -0.780274,-5.0800781 0,-3.2373047 -0.08301,-3.8681641 Q 25.235703,3.5488281 24.687851,3.1171875 24.156601,2.6689453 22.579453,2.6689453 H 22.064804 V 0.0625 h 0.929688 q 1.626953,0 2.357421,0.265625 1.0625,0.36523437 1.759766,1.2285156 0.697266,0.8632813 0.896484,2.1748047 0.215821,1.3115234 0.232422,4.2998047 0.0166,2.988281 0.282227,4.133789 0.265625,1.128906 1.0625,1.792969 0.813476,0.664062 2.091797,0.697265 z"
		aria-label="}" />

</svg>
