<?xml version="1.0" encoding="UTF-8"?>
<svg viewBox="0 0 32 32" xmlns="http://www.w3.org/2000/svg">

	<style type="text/css">
		svg { fill: #888; }
		@media (prefers-color-scheme: light) {
			svg { fill: #666; }
		}
	</style>

	<path id="lb" d="m12.8 31.9h-1.26q-3.3 0-4.9-1.56-1.61-1.54-1.61-4.68v-5.88q0-0.837-0.188-1.49-0.188-0.667-0.667-1.11-0.461-0.461-1.25-0.701-0.769-0.239-1.95-0.239h-0.735v-2.38h0.735q1.25 0 2.03-0.205t1.23-0.615q0.444-0.427 0.615-1.08 0.171-0.649 0.171-1.54v-4.05q0-1.44 0.342-2.58 0.342-1.16 1.11-1.97 0.786-0.82 2.02-1.25 1.25-0.444 3.04-0.444h1.26v2.39h-1.01q-3.96 0-3.96 3.85v3.98q0 4.17-3.61 4.7 3.64 0.359 3.64 4.68v5.84q0 3.91 3.93 3.91h1.01z" />
	<use href="#lb" transform="scale(-1 1) translate(-32)" />

</svg>
