<?xml version="1.0" encoding="UTF-8" standalone="no"?>
<svg xmlns="http://www.w3.org/2000/svg" viewBox="0 0 32 32">

	<style type="text/css">
		path { fill: #888; }

		@media (prefers-color-scheme: light) {
			path { fill: #666; }
		}
	</style>

	<path
		d="m 12.92,31.899999 q -2.88,0 -4.8,-0.6 -1.92,-0.56 -2.88,-2.08 -0.92,-1.52 -0.8,-4.32 l 0.16,-4 q 0,-2.64 -0.96,-3.56 -0.92,-0.92 -2.64,-0.92 H 0.20000004 v -2.24 h 0.76 q 1.83999996,0 2.75999996,-1 0.96,-1 0.96,-3.2799996 l -0.08,-2.88 q 0,-6.95999997 7.28,-6.95999997 H 14.4 V 2.3399994 h -3.28 q -3.72,0 -3.72,4.24 l 0.08,2.8 q 0,4.3999996 -3.48,5.9199996 3.4,1.12 3.4,6.2 l -0.12,3.36 q 0,2.72 1.16,3.76 1.2,1.04 3.88,1.04 h 2.04 v 2.24 z"
		aria-label="{" />

	<path
		d="m 19.079999,31.899999 q 2.88,0 4.8,-0.6 1.92,-0.56 2.84,-2.08 0.96,-1.52 0.84,-4.32 l -0.16,-4 q 0,-2.64 0.92,-3.56 0.96,-0.92 2.68,-0.92 h 0.8 v -2.24 h -0.76 q -1.84,0 -2.8,-1 -0.92,-1 -0.92,-3.2799996 l 0.08,-2.88 q 0,-6.95999997 -7.28,-6.95999997 h -2.52 V 2.3399994 h 3.28 q 3.72,0 3.72,4.24 l -0.08,2.8 q 0,4.3999996 3.48,5.9199996 -3.4,1.12 -3.4,6.2 l 0.12,3.36 q 0,2.72 -1.2,3.76 -1.16,1.04 -3.84,1.04 h -2.04 v 2.24 z"
		aria-label="}" />

</svg>
