<?xml version="1.0" encoding="UTF-8"?>
<svg viewBox="0 0 32 32" xmlns="http://www.w3.org/2000/svg">

	<style type="text/css">
		svg { fill: #888; }
		@media (prefers-color-scheme: light) {
			svg { fill: #666; }
		}
	</style>

	<path id="lb" d="m12.9 31.9q-2.88 0-4.8-0.6-1.92-0.56-2.88-2.08-0.92-1.52-0.8-4.32l0.16-4q0-2.64-0.96-3.56-0.92-0.92-2.64-0.92h-0.8v-2.24h0.76q1.84 0 2.76-1 0.96-1 0.96-3.28l-0.08-2.88q0-6.96 7.28-6.96h2.52v2.28h-3.28q-3.72 0-3.72 4.24l0.08 2.8q0 4.4-3.48 5.92 3.4 1.12 3.4 6.2l-0.12 3.36q0 2.72 1.16 3.76 1.2 1.04 3.88 1.04h2.04v2.24z" />
	<use href="#lb" transform="scale(-1 1) translate(-32)" />

</svg>
