<?xml version="1.0" encoding="UTF-8" standalone="no"?>
<svg xmlns="http://www.w3.org/2000/svg" viewBox="0 0 32 32">

	<style type="text/css">
		path { fill: #888; }

		@media (prefers-color-scheme: light) {
			path { fill: #666; }
		}
	</style>

	<path
		d="M 8.4268554,31.907648 Q 2.8804687,31.835382 2.8804687,26.307062 V 20.88714 q 0,-3.649414 -2.81835935,-3.830078 V 14.961359 Q 2.8804687,14.780695 2.8804687,11.059015 V 5.7836246 q 0,-5.60058589 5.5463867,-5.67285151 V 2.4232731 Q 5.5542969,2.4955387 5.5542969,6.0004215 v 5.2934575 q 0,3.793945 -2.709961,4.661132 v 0.07227 q 2.709961,0.812988 2.709961,4.625 v 5.221191 q 0,2.005371 0.6323242,2.854493 0.6503906,0.867187 2.2402343,0.90332 z"
		aria-label="{" />

	<path
		d="m 31.974022,17.057062 q -2.818359,0.180664 -2.818359,3.830078 v 5.419922 q 0,5.52832 -5.528321,5.600586 v -2.276367 q 1.571778,-0.03613 2.222168,-0.90332 0.668457,-0.867188 0.668457,-2.854493 v -5.221191 q 0,-3.812012 2.691895,-4.625 v -0.07227 Q 26.517967,15.087824 26.517967,11.293879 V 6.0004215 q 0,-3.5048828 -2.890625,-3.5771484 V 0.11077309 q 5.528321,0.0722656 5.528321,5.67285151 v 5.2753904 q 0,3.72168 2.818359,3.902344 z"
		aria-label="}" />

</svg>
