<?xml version="1.0" encoding="UTF-8"?>
<svg version="1.1" viewBox="0 0 32 32" xmlns="http://www.w3.org/2000/svg" xmlns:xlink="http://www.w3.org/1999/xlink">
	<style type="text/css">svg {
			fill: #888;
			dominant-baseline: middle;
			text-anchor: start;
		}
		@media (prefers-color-scheme: light) {
			svg { fill: #666; }
		}</style>
	<path id="lb" d="m0.278 14.7q1.24-0.0322 2.01-0.661 0.79-0.645 1.05-1.76t0.274-3.8q0.0161-2.69 0.0967-3.54 0.145-1.35 0.532-2.18 0.403-0.822 0.983-1.31 0.58-0.5 1.48-0.757 0.612-0.161 2-0.161h0.902v2.53h-0.5q-1.68 0-2.22 0.612-0.548 0.596-0.548 2.69 0 4.22-0.177 5.33-0.29 1.72-0.999 2.66-0.693 0.935-2.19 1.66 1.77 0.741 2.56 2.27 0.806 1.51 0.806 4.98 0 3.14 0.0645 3.74 0.129 1.1 0.645 1.53 0.532 0.435 2.06 0.435h0.5v2.53h-0.902q-1.58 0-2.29-0.258-1.03-0.371-1.71-1.21-0.677-0.822-0.886-2.09-0.193-1.27-0.209-4.17-0.0161-2.9-0.274-4.01-0.258-1.11-1.05-1.76-0.773-0.645-2.01-0.677z" aria-label="{"/>
	<use transform="scale(-1 1) translate(-32)" xlink:href="#lb"/>
</svg>
